<svg width="24" height="24" fill="none" xmlns="http://www.w3.org/2000/svg"><path fillRule="evenodd" clipRule="evenodd" d="M7 5a2 2 0 0 1 2-2h2a2 2 0 0 1 2 2v14a2 2 0 0 1-2 2H9a2 2 0 0 1-2-2V5zm4 0H9v14h2V5z" fill="#777299" /><path fillRule="evenodd" clipRule="evenodd" d="M2 5a2 2 0 0 1 2-2h2a2 2 0 0 1 2 2v14a2 2 0 0 1-2 2H4a2 2 0 0 1-2-2V5zm4 0H4v14h2V5z" fill="#777299" /><path fillRule="evenodd" clipRule="evenodd" d="M12 14H3v-2h9v2zM12 17H3v-2h9v2zM15.637 3.048a2 2 0 0 1 2.45 1.414l3.623 13.523a2 2 0 0 1-1.415 2.45l-1.932.517a2 2 0 0 1-2.449-1.414L12.291 6.015a2 2 0 0 1 1.414-2.45l1.932-.517zm.517 1.932-1.932.517 3.624 13.523 1.932-.517L16.154 4.98z" fill="#777299" /><path fillRule="evenodd" clipRule="evenodd" d="m19.45 13.414-3.864 1.035-.518-1.931 3.864-1.036.518 1.932zM20.226 16.312l-3.864 1.035-.517-1.932 3.863-1.035.518 1.932z" fill="#777299" /></svg>